# Blender v2.79 (sub 0) OBJ File: ''
# www.blender.org
mtllib 1pipe.mtl
o Plane.002_Mesh.010
v 1.900000 0.100000 0.173205
v 1.900000 2.900000 0.173205
v 1.800000 2.900000 0.000000
v 1.800000 0.100000 0.000000
v 2.100000 0.100000 0.173205
v 2.100000 2.900000 0.173205
v 1.900000 2.900000 0.173205
v 1.900000 0.100000 0.173205
v 2.200000 0.100000 0.000000
v 2.200000 2.900000 0.000000
v 2.100000 2.900000 0.173205
v 2.100000 0.100000 0.173205
v 2.100000 0.100000 -0.173205
v 2.100000 2.900000 -0.173206
v 2.200000 2.900000 0.000000
v 2.200000 0.100000 0.000000
v 1.900000 0.100000 -0.173205
v 1.900000 2.900000 -0.173206
v 2.100000 2.900000 -0.173206
v 2.100000 0.100000 -0.173205
v 1.800000 0.100000 0.000000
v 1.800000 2.900000 0.000000
v 1.900000 2.900000 -0.173206
v 1.900000 0.100000 -0.173205
v 2.100000 2.900000 0.173205
v 2.200000 2.900000 0.000000
v 2.220000 2.900000 0.000000
v 2.110000 2.900000 0.190525
v 2.100000 2.900000 -0.173206
v 1.900000 2.900000 -0.173206
v 1.890000 2.900000 -0.190526
v 2.110000 2.900000 -0.190526
v 1.800000 2.900000 0.000000
v 1.780000 2.900000 0.000000
v 1.900000 2.900000 0.173205
v 1.890000 2.900000 0.190525
v 2.220000 2.900000 0.000000
v 2.110000 2.900000 -0.190526
v 2.110000 3.000000 -0.190526
v 2.220000 3.000000 0.000000
v 1.780000 2.900000 0.000000
v 1.890000 2.900000 0.190525
v 1.890000 3.000000 0.190525
v 1.780000 3.000000 0.000000
v 2.110000 2.900000 0.190525
v 2.220000 2.900000 0.000000
v 2.220000 3.000000 0.000000
v 2.110000 3.000000 0.190525
v 1.890000 2.900000 0.190525
v 2.110000 2.900000 0.190525
v 2.110000 3.000000 0.190525
v 1.890000 3.000000 0.190525
v 2.110000 2.900000 -0.190526
v 1.890000 2.900000 -0.190526
v 1.890000 3.000000 -0.190526
v 2.110000 3.000000 -0.190526
v 1.890000 2.900000 -0.190526
v 1.780000 2.900000 0.000000
v 1.780000 3.000000 0.000000
v 1.890000 3.000000 -0.190526
v 1.800000 0.100000 0.000000
v 1.900000 0.100000 -0.173205
v 1.890000 0.100000 -0.190526
v 1.780000 0.100000 0.000000
v 2.100000 0.100000 -0.173205
v 2.200000 0.100000 0.000000
v 2.220000 0.100000 0.000000
v 2.110000 0.100000 -0.190526
v 1.900000 0.100000 0.173205
v 1.890000 0.100000 0.190526
v 2.100000 0.100000 0.173205
v 2.110000 0.100000 0.190526
v 1.780000 0.100000 0.000000
v 1.890000 0.100000 -0.190526
v 1.890000 0.000000 -0.190526
v 1.780000 0.000000 0.000000
v 1.890000 0.100000 -0.190526
v 2.110000 0.100000 -0.190526
v 2.110000 0.000000 -0.190526
v 1.890000 0.000000 -0.190526
v 1.890000 0.100000 0.190526
v 1.780000 0.100000 0.000000
v 1.780000 0.000000 0.000000
v 1.890000 -0.000000 0.190526
v 2.110000 0.100000 0.190526
v 1.890000 0.100000 0.190526
v 1.890000 -0.000000 0.190526
v 2.110000 -0.000000 0.190526
v 2.220000 0.100000 0.000000
v 2.110000 0.100000 0.190526
v 2.110000 -0.000000 0.190526
v 2.220000 0.000000 0.000000
v 2.110000 0.100000 -0.190526
v 2.220000 0.100000 0.000000
v 2.220000 0.000000 0.000000
v 2.110000 0.000000 -0.190526
vn -0.8660 -0.0000 0.5000
vn 0.0000 -0.0000 1.0000
vn 0.8660 -0.0000 0.5000
vn 0.8660 -0.0000 -0.5000
vn 0.0000 -0.0000 -1.0000
vn -0.8660 -0.0000 -0.5000
vn 0.0000 -1.0000 0.0000
vn 0.0000 1.0000 0.0000
usemtl None
s 1
f 1//1 2//1 3//1 4//1
f 5//2 6//2 7//2 8//2
f 9//3 10//3 11//3 12//3
f 13//4 14//4 15//4 16//4
f 17//5 18//5 19//5 20//5
f 21//6 22//6 23//6 24//6
f 25//7 26//7 27//7 28//7
f 29//7 30//7 31//7 32//7
f 26//7 29//7 32//7 27//7
f 30//7 33//7 34//7 31//7
f 35//7 25//7 28//7 36//7
f 33//7 35//7 36//7 34//7
f 37//4 38//4 39//4 40//4
f 41//1 42//1 43//1 44//1
f 45//3 46//3 47//3 48//3
f 49//2 50//2 51//2 52//2
f 53//5 54//5 55//5 56//5
f 57//6 58//6 59//6 60//6
f 61//8 62//8 63//8 64//8
f 65//8 66//8 67//8 68//8
f 69//8 61//8 64//8 70//8
f 66//8 71//8 72//8 67//8
f 62//8 65//8 68//8 63//8
f 71//8 69//8 70//8 72//8
f 73//6 74//6 75//6 76//6
f 77//5 78//5 79//5 80//5
f 81//1 82//1 83//1 84//1
f 85//2 86//2 87//2 88//2
f 89//3 90//3 91//3 92//3
f 93//4 94//4 95//4 96//4
